<svg width="300" height="300" viewBox="0 0 300 300" fill="none" xmlns="http://www.w3.org/2000/svg">
<rect width="300" height="300" fill="black"/>
<g clip-path="url(#clip0_226_22)">
<path d="M135.53 119.366C129.829 120.099 124.776 121.386 120.37 123.227C113.704 126.014 108.642 130.282 105.185 136.032C101.728 141.746 100 149.171 100 158.307C100 167.725 102.046 175.52 106.138 181.693C108.219 184.788 110.721 187.488 113.645 189.794C111.918 186.787 110.526 183.487 109.471 179.894C107.848 174.215 107.037 168.166 107.037 161.746C107.037 152.928 108.677 145.432 111.958 139.259C115.273 133.086 119.7 128.166 125.238 124.497C128.46 122.363 131.89 120.653 135.53 119.366Z" fill="#F97700"/>
<path fill-rule="evenodd" clip-rule="evenodd" d="M123.492 195.45C127.466 197.062 131.798 198.246 136.488 199.001C136.14 198.191 135.794 197.29 135.45 196.297C134.533 193.545 133.721 190.582 133.016 187.408L138.783 190.953C139.277 192.786 139.965 194.779 140.847 196.931C141.245 197.921 141.652 198.838 142.065 199.683C144.533 199.894 147.09 200 149.735 200C152.382 200 154.939 199.895 157.405 199.684C157.819 198.839 158.225 197.922 158.624 196.931C159.541 194.779 160.229 192.786 160.688 190.953L166.455 187.408C165.75 190.582 164.938 193.545 164.021 196.297C163.69 197.29 163.352 198.191 163.007 199.001C167.699 198.246 172.023 197.062 175.979 195.45C176.758 195.134 177.518 194.801 178.261 194.451C180.82 190.722 182.864 186.628 184.392 182.169C186.578 175.855 187.672 169.065 187.672 161.799C187.672 155.661 186.702 150.159 184.762 145.291C182.822 140.423 180.194 136.261 176.878 132.804C173.598 129.312 169.894 126.614 165.767 124.709C163.252 123.527 160.698 122.652 158.104 122.086C159.936 123.947 161.591 126.145 163.069 128.677C165.044 132.028 166.437 135.132 167.249 137.989L163.757 142.857C162.875 138.836 161.323 135.044 159.101 131.481C157.607 129.025 156.056 127.02 154.448 125.468C153.254 126.126 151.859 126.455 150.265 126.455C148.161 126.455 146.41 126.113 145.01 125.43C143.387 126.987 141.823 129.005 140.317 131.481C138.13 135.044 136.578 138.836 135.661 142.857L132.222 137.989C133.034 135.132 134.427 132.028 136.402 128.677C137.907 126.142 139.571 123.943 141.392 122.08C138.79 122.647 136.227 123.523 133.704 124.709C129.577 126.614 125.855 129.312 122.54 132.804C119.259 136.261 116.649 140.423 114.709 145.291C112.769 150.159 111.799 155.661 111.799 161.799C111.799 169.065 112.892 175.855 115.079 182.169C116.634 186.631 118.687 190.728 121.238 194.459C121.972 194.806 122.723 195.136 123.492 195.45ZM140.741 185.926C141.199 186.208 141.658 186.349 142.116 186.349C142.645 186.349 143.175 186.12 143.704 185.661L148.624 181.323C149.012 181.005 149.383 180.847 149.735 180.847C150.123 180.847 150.494 181.005 150.847 181.323L155.767 185.661C156.296 186.12 156.825 186.349 157.354 186.349C157.813 186.349 158.272 186.208 158.73 185.926L165.079 182.011C165.644 181.658 166.208 181.481 166.772 181.481C167.266 181.481 167.76 181.623 168.254 181.905L173.386 184.55C174.444 185.079 175.203 184.744 175.661 183.545L180.952 168.254C181.129 167.76 181.111 167.407 180.899 167.196C180.723 166.984 180.406 167.002 179.947 167.249L172.434 171.111C171.975 171.358 171.534 171.481 171.111 171.481C170.511 171.481 169.947 171.217 169.418 170.688L166.349 167.672C165.961 167.284 165.432 167.09 164.762 167.09C164.303 167.09 163.88 167.196 163.492 167.407L157.619 171.111C157.09 171.429 156.614 171.587 156.19 171.587C155.661 171.587 155.132 171.358 154.603 170.899L150.847 167.672C150.353 167.213 149.982 166.984 149.735 166.984C149.489 166.984 149.118 167.213 148.624 167.672L144.868 170.899C144.339 171.358 143.809 171.587 143.28 171.587C142.857 171.587 142.381 171.429 141.852 171.111L135.979 167.407C135.626 167.196 135.203 167.09 134.709 167.09C134.039 167.09 133.51 167.284 133.122 167.672L130.053 170.688C129.524 171.217 128.959 171.481 128.36 171.481C127.936 171.481 127.496 171.358 127.037 171.111L119.524 167.249C119.065 167.002 118.73 166.984 118.519 167.196C118.342 167.407 118.342 167.76 118.519 168.254L123.809 183.545C124.268 184.744 125.026 185.079 126.085 184.55L131.217 181.905C131.711 181.623 132.205 181.481 132.698 181.481C133.263 181.481 133.827 181.658 134.392 182.011L140.741 185.926ZM118.995 156.032L137.884 158.095C138.695 158.166 139.101 157.901 139.101 157.302C139.101 157.09 139.03 156.861 138.889 156.614L130.529 143.016C130.212 142.487 129.859 142.222 129.471 142.222C129.189 142.222 128.889 142.399 128.571 142.751L118.36 154.497C118.113 154.78 117.989 155.044 117.989 155.291C117.989 155.75 118.324 155.996 118.995 156.032ZM141.958 162.222C141.958 162.928 142.487 163.28 143.545 163.28H155.926C156.984 163.28 157.513 162.928 157.513 162.222C157.513 161.834 157.337 161.464 156.984 161.111L150.952 154.233C150.459 153.633 150.053 153.333 149.735 153.333C149.453 153.333 149.048 153.633 148.519 154.233L142.487 161.111C142.134 161.464 141.958 161.834 141.958 162.222ZM160.37 157.302C160.37 157.901 160.776 158.166 161.587 158.095L180.476 156.032C181.146 155.996 181.481 155.75 181.481 155.291C181.481 155.044 181.358 154.78 181.111 154.497L170.899 142.751C170.582 142.399 170.282 142.222 170 142.222C169.612 142.222 169.259 142.487 168.942 143.016L160.582 156.614C160.441 156.861 160.37 157.09 160.37 157.302Z" fill="#F97700"/>
<path d="M193.334 181.64C197.425 175.467 199.471 167.69 199.471 158.307C199.471 149.136 197.725 141.693 194.233 135.979C190.776 130.229 185.714 125.979 179.048 123.227C174.654 121.391 169.624 120.106 163.958 119.373C167.592 120.658 171.016 122.367 174.233 124.497C179.771 128.166 184.18 133.086 187.46 139.259C190.776 145.432 192.434 152.928 192.434 161.746C192.434 168.166 191.622 174.215 190 179.894C188.97 183.479 187.591 186.772 185.863 189.772C188.783 187.459 191.272 184.749 193.334 181.64Z" fill="#F97700"/>
<path d="M150.265 121.164C151.041 121.164 151.728 120.899 152.328 120.37C152.963 119.841 153.28 119.048 153.28 117.989C153.28 114.956 152.663 112.064 151.428 109.312C150.194 106.561 148.554 104.321 146.508 102.593C144.497 100.864 142.293 100 139.894 100C139.048 100 138.342 100.194 137.778 100.582C137.213 100.97 136.931 101.517 136.931 102.222C136.931 102.681 137.072 103.122 137.354 103.545C137.672 103.933 138.272 104.392 139.153 104.921L140.741 105.873C142.857 107.143 144.533 108.818 145.767 110.899C147.002 112.945 147.619 115.344 147.619 118.095C147.619 118.977 147.884 119.718 148.413 120.317C148.942 120.882 149.559 121.164 150.265 121.164Z" fill="#F97700"/>
</g>
<defs>
<clipPath id="clip0_226_22">
<rect width="100" height="100" fill="white" transform="translate(100 100)"/>
</clipPath>
</defs>
</svg>
