<?xml version="1.0" standalone="no"?>
<!DOCTYPE svg PUBLIC "-//W3C//DTD SVG 20010904//EN"
 "http://www.w3.org/TR/2001/REC-SVG-20010904/DTD/svg10.dtd">
<svg version="1.0" xmlns="http://www.w3.org/2000/svg"
 width="512.000000pt" height="512.000000pt" viewBox="0 0 512.000000 512.000000"
 preserveAspectRatio="xMidYMid meet">
<metadata>
Created by potrace 1.14, written by Peter Selinger 2001-2017
</metadata>
<g transform="translate(0.000000,512.000000) scale(0.100000,-0.100000)"
fill="#000000" stroke="none">
<path d="M0 2560 l0 -2560 2560 0 2560 0 0 2560 0 2560 -2560 0 -2560 0 0
-2560z m2343 956 c72 -72 71 -57 77 -771 4 -572 7 -643 22 -670 26 -48 111
-122 154 -134 22 -6 109 -11 194 -11 170 0 230 -11 297 -53 66 -42 69 -103 5
-148 -72 -51 -93 -54 -439 -54 -244 0 -325 3 -334 13 -7 6 -21 12 -31 12 -27
0 -93 65 -116 113 -10 23 -23 65 -27 92 -9 59 -8 1412 1 1469 16 97 70 170
128 174 28 2 42 -4 69 -32z"/>
</g>
</svg>
