<?xml version="1.0" standalone="no"?>
<!DOCTYPE svg PUBLIC "-//W3C//DTD SVG 20010904//EN"
 "http://www.w3.org/TR/2001/REC-SVG-20010904/DTD/svg10.dtd">
<svg version="1.0" xmlns="http://www.w3.org/2000/svg"
 width="400.000000pt" height="400.000000pt" viewBox="0 0 400.000000 400.000000"
 preserveAspectRatio="xMidYMid meet">
<metadata>
Created by potrace 1.14, written by Peter Selinger 2001-2017
</metadata>
<g transform="translate(0.000000,400.000000) scale(0.100000,-0.100000)"
fill="#000000" stroke="none">
<path d="M1895 3400 l0 -100 203 0 202 0 0 -50 0 -50 50 0 50 0 0 -44 c0 -47
11 -56 73 -56 l27 0 0 -100 0 -100 -100 0 -100 0 0 50 0 50 -450 0 -450 0 0
100 0 100 50 0 50 0 0 50 0 50 100 0 100 0 0 -50 0 -51 100 2 100 1 0 44 c0
39 -3 46 -26 54 -31 12 -37 12 -30 1 4 -5 -16 -3 -44 4 -29 8 -52 9 -56 4 -7
-12 -34 -11 -34 1 0 6 8 10 18 11 14 0 14 2 -3 9 -20 8 -20 9 1 9 11 1 24 -2
28 -6 3 -4 15 -8 26 -10 23 -3 27 25 10 58 -10 18 -23 19 -188 19 -97 0 -183
-4 -191 -9 -9 -6 -12 -22 -9 -50 l4 -41 -53 0 -53 0 0 -50 0 -50 -50 0 -50 0
0 -150 0 -150 -50 0 -50 0 0 -50 0 -50 -150 0 -150 0 0 -50 0 -50 50 0 50 0 0
-50 0 -50 50 0 50 0 2 -167 c1 -153 2 -181 7 -220 0 -8 16 -13 44 -12 23 0 36
3 30 6 -7 2 -13 12 -13 20 0 13 4 11 19 -5 14 -17 30 -22 65 -22 l46 0 0 -51
0 -50 -42 3 c-40 3 -43 5 -49 38 -4 23 -7 5 -8 -52 l-1 -88 50 0 50 0 0 -100
0 -100 50 0 50 0 0 -50 0 -50 253 0 252 0 -3 50 -4 50 51 0 51 0 0 -200 0
-200 -108 0 -107 0 3 -45 4 -45 -46 0 -46 0 0 46 0 46 -50 -4 -50 -3 0 103 0
102 -54 0 -53 0 5 -50 5 -50 -52 0 -51 0 0 -49 0 -49 -62 -6 c-35 -4 -75 -8
-90 -8 -15 -1 -25 -5 -22 -10 4 -6 22 -7 40 -3 l34 6 0 -66 c0 -48 3 -64 12
-59 8 5 9 2 3 -12 -5 -10 -11 -47 -13 -81 l-4 -63 54 0 53 0 -3 -49 -4 -49 47
-4 c26 -2 49 1 52 5 3 5 2 51 -1 103 l-7 94 150 0 150 0 3 -52 3 -53 50 3 50
2 2 -50 2 -50 -100 0 -99 0 0 -49 0 -50 48 -3 47 -3 0 -45 0 -45 53 -3 52 -3
0 -50 0 -49 -100 0 -100 0 0 -50 0 -50 50 0 c33 0 50 -4 51 -12 0 -7 1 -29 2
-48 l2 -35 198 -3 197 -2 0 50 0 50 44 0 c48 0 56 9 56 66 l0 34 50 0 50 0 0
49 0 49 100 7 100 7 0 94 0 94 50 0 50 0 0 50 0 50 45 0 45 0 2 53 c2 47 5
113 7 145 1 8 18 12 51 12 l50 0 0 95 0 95 50 0 50 0 0 50 0 50 50 0 50 0 0
400 0 400 -50 0 -50 0 0 300 0 300 -50 0 -50 0 0 100 0 100 -55 0 -55 0 0 50
0 50 -95 0 -95 0 0 50 0 50 -200 0 -200 0 0 50 0 50 -102 0 -103 0 0 -100z
m-142 -17 c-7 -2 -21 -2 -30 0 -10 3 -4 5 12 5 17 0 24 -2 18 -5z m31 -28 c-4
-8 -10 -15 -16 -15 -5 0 -6 4 -3 10 4 6 -5 7 -23 4 -16 -3 -32 -2 -35 3 -3 5
14 10 38 11 35 1 43 -1 39 -13z m-503 -879 c-13 -14 -20 -30 -16 -36 6 -9 10
-9 16 1 6 10 9 5 9 -14 l0 -29 98 2 c53 1 123 2 155 1 l57 -1 0 -45 0 -45 118
0 c64 0 154 -3 200 -7 l82 -6 0 -98 0 -99 -78 0 c-47 0 -83 -5 -90 -12 -9 -9
-12 -9 -12 0 0 8 -20 12 -60 12 l-60 0 0 50 0 50 -250 0 -250 0 0 150 0 150
52 0 51 0 -22 -24z m-201 -214 c0 -5 -7 -9 -15 -9 -8 0 -15 4 -15 9 0 4 7 8
15 8 8 0 15 -4 15 -8z m-43 -28 c-3 -3 -12 -4 -19 -1 -8 3 -5 6 6 6 11 1 17
-2 13 -5z m1247 -640 c10 -4 16 -18 16 -36 0 -25 -3 -29 -20 -25 -15 4 -20 0
-20 -14 0 -33 -20 -21 -22 14 l-1 32 -4 -33 c-4 -28 -7 -31 -19 -21 -8 6 -14
29 -14 50 0 38 1 39 34 39 19 0 41 -3 50 -6z m6 -78 c0 -3 -4 -8 -10 -11 -5
-3 -10 -1 -10 4 0 6 5 11 10 11 6 0 10 -2 10 -4z m-968 -368 c2 -21 0 -38 -4
-38 -4 0 -8 21 -7 48 1 52 6 48 11 -10z m15 0 c-2 -13 -4 -5 -4 17 -1 22 1 32
4 23 2 -10 2 -28 0 -40z"/>
<path d="M1227 2456 c-3 -8 -2 -18 3 -21 13 -8 20 9 11 24 -6 10 -10 9 -14 -3z"/>
<path d="M2213 1555 c0 -22 2 -30 4 -17 2 12 2 30 0 40 -3 9 -5 -1 -4 -23z"/>
<path d="M1633 3113 c9 -2 23 -2 30 0 6 3 -1 5 -18 5 -16 0 -22 -2 -12 -5z"/>
<path d="M1511 1524 c0 -11 3 -14 6 -6 3 7 2 16 -1 19 -3 4 -6 -2 -5 -13z"/>
<path d="M1738 1063 c-16 -2 -28 -8 -28 -13 0 -5 14 -5 31 0 30 9 53 22 33 19
-5 -1 -21 -4 -36 -6z"/>
<path d="M1765 1040 c-3 -5 -1 -10 4 -10 6 0 11 5 11 10 0 6 -2 10 -4 10 -3 0
-8 -4 -11 -10z"/>
<path d="M1418 892 c-10 -2 -15 -9 -11 -18 5 -13 7 -13 14 -2 6 9 9 7 9 -9 0
-16 6 -23 20 -23 11 0 20 5 20 10 0 6 7 10 16 10 9 0 14 6 12 12 -5 14 -53 26
-80 20z m42 -32 c0 -5 -4 -10 -10 -10 -5 0 -10 5 -10 10 0 6 5 10 10 10 6 0
10 -4 10 -10z"/>
<path d="M1411 838 c-1 -18 3 -20 39 -20 42 0 50 2 50 17 0 8 -4 15 -10 15 -5
0 -10 -4 -10 -10 0 -15 -57 -12 -63 3 -3 7 -6 5 -6 -5z"/>
<path d="M2370 780 c0 -5 5 -10 10 -10 6 0 10 5 10 10 0 6 -4 10 -10 10 -5 0
-10 -4 -10 -10z"/>
<path d="M2320 750 c0 -5 7 -7 15 -4 8 4 15 8 15 10 0 2 -7 4 -15 4 -8 0 -15
-4 -15 -10z"/>
<path d="M2333 703 c15 -2 37 -2 50 0 12 2 0 4 -28 4 -27 0 -38 -2 -22 -4z"/>
</g>
</svg>
